<?xml version="1.0" encoding="UTF-8"?>
<svg id="麒麟安装" viewBox="0 0 32 32" xmlns="http://www.w3.org/2000/svg">
 <defs>
  <style>.cls-1,.cls-5{fill:none;opacity:0.3;}.cls-2{fill:url(#未命名的渐变_122);}.cls-3{clip-path:url(#clip-path);}.cls-4{opacity:0.1;}.cls-5{stroke:#fff;stroke-miterlimit:10;stroke-width:0.95px;}.cls-6{fill:#afd9e9;}.cls-7{fill:#1e95d4;}.cls-8{fill:#1888ca;}.cls-9{fill:#0a5da4;}.cls-10{fill:#00417a;}</style>
  <linearGradient id="未命名的渐变_122" x1="16" x2="16" y1="30" y2="2" gradientUnits="userSpaceOnUse">
   <stop stop-color="#859ba6" offset="0"/>
   <stop stop-color="#b5c2c9" offset="1"/>
  </linearGradient>
  <clipPath id="clip-path">
   <rect id="SVGID" class="cls-1" x="2" y="2" width="28" height="28" rx="4"/>
  </clipPath>
 </defs>
 <g id="_32" data-name="32">
  <rect class="cls-2" x="2" y="2" width="28" height="28" rx="4"/>
  <g id="_32-2" data-name="32">
   <g class="cls-3">
    <g class="cls-4">
     <line class="cls-5" x1="2" x2="30" y1="28.34" y2="28.34"/>
     <line class="cls-5" x1="2" x2="30" y1="24.31" y2="24.31"/>
     <line class="cls-5" x1="2" x2="30" y1="20.27" y2="20.27"/>
     <line class="cls-5" x1="2" x2="30" y1="16.24" y2="16.24"/>
     <line class="cls-5" x1="2" x2="30" y1="12.2" y2="12.2"/>
     <line class="cls-5" x1="2" x2="30" y1="8.17" y2="8.17"/>
     <line class="cls-5" x1="2" x2="30" y1="4.14" y2="4.14"/>
    </g>
   </g>
  </g>
 </g>
 <polygon class="cls-1" points="16 18.45 19 19.65 16.1 18.45"/>
 <polygon class="cls-6" points="11.9 16.95 10.8 13.95 7.6 16.25 9.5 16.35"/>
 <polygon class="cls-7" points="16.1 18.45 19 19.65 19.9 17.45 16 18.45"/>
 <polygon class="cls-6" points="11.3 19.45 16 18.45 11.9 16.95"/>
 <polygon class="cls-7" points="7.6 16.25 8.2 20.15 9.5 16.35"/>
 <polygon class="cls-8" points="9.5 16.35 8.2 20.15 11.9 16.95"/>
 <polygon class="cls-7" points="8.2 20.15 11.3 19.45 11.9 16.95"/>
 <polygon class="cls-9" points="10.8 13.95 13.1 13.95 13.1 12.35"/>
 <polygon class="cls-8" points="15.9 16.15 13.1 13.95 11.9 16.95"/>
 <polygon class="cls-7" points="11.9 16.95 13.1 13.95 10.8 13.95"/>
 <polygon class="cls-9" points="16.5 25.15 16.5 24.05 15.4 23.55"/>
 <polygon class="cls-10" points="13.5 25.15 16.5 25.15 15.4 23.55"/>
 <polygon class="cls-10" points="15.4 23.55 16.5 24.05 17.4 21.25"/>
 <polygon class="cls-9" points="20.3 25.05 22.5 22.95 19.7 23.35"/>
 <polygon class="cls-10" points="17.2 26.75 20.4 26.75 20.3 25.05 19.7 23.35"/>
 <polygon class="cls-9" points="16.5 24.05 18.9 22.45 17.4 21.25"/>
 <polygon class="cls-10" points="22.5 22.95 21.4 20.75 19.7 23.35"/>
 <polygon class="cls-10" points="5.4 26.05 8.4 26.05 6.5 24.65"/>
 <polygon class="cls-8" points="15.6 5.25 12.6 8.25 14.1 7.75"/>
 <polygon class="cls-8" points="13 6.25 10.1 9.05 12 8.15"/>
 <polygon class="cls-8" points="18.9 22.45 19.7 23.35 21.4 20.75 17.4 21.25"/>
 <polygon class="cls-7" points="14.1 7.75 12.6 8.25 14.4 8.85"/>
 <polygon class="cls-6" points="12.3 8.15 13 6.25 12 8.15"/>
 <polygon class="cls-6" points="14.4 8.85 15.6 5.25 14.1 7.75"/>
 <polygon class="cls-8" points="7.6 23.55 6.5 24.65 8.8 23.35 7.1 22.15"/>
 <polygon class="cls-7" points="7.8 13.35 7.6 16.25 10.8 13.95"/>
 <polygon class="cls-9" points="8.4 26.05 8.8 23.35 6.5 24.65"/>
 <polygon class="cls-9" points="21.4 20.75 21.1 18.15 19 19.65"/>
 <polygon class="cls-7" points="17.4 21.25 21.4 20.75 19 19.65"/>
 <polygon class="cls-8" points="19 19.65 21.1 18.15 19.9 17.45"/>
 <polygon class="cls-8" points="23.4 16.65 22.7 16.15 21.1 18.15 23.6 16.75 23.4 16.75"/>
 <polygon class="cls-9" points="15.7 20.25 17.4 21.25 19 19.65"/>
 <polygon class="cls-7" points="21 16.95 19.9 17.45 21.1 18.15 22.7 16.15"/>
 <polygon class="cls-10" points="14.1 21.05 15.7 20.25 11.3 19.45"/>
 <polygon class="cls-8" points="16 18.45 15.7 20.25 19 19.65"/>
 <polygon class="cls-9" points="11.3 19.45 15.7 20.25 16 18.45"/>
 <polygon class="cls-6" points="27 12.95 24.3 13.75 25.4 15.05"/>
 <polygon class="cls-8" points="24.7 16.95 26.5 16.35 25.4 15.05"/>
 <polygon class="cls-9" points="23.6 16.55 23.6 16.75 23.5 16.65 23.4 16.75 23.6 16.75 24.7 16.95 25.4 15.05"/>
 <polygon class="cls-7" points="24.3 13.75 22.7 16.15 23.4 16.65"/>
 <polygon class="cls-7" points="23.6 16.75 23.6 16.55 23.5 16.65"/>
 <polygon class="cls-7" points="25.4 15.05 26.5 16.35 27 12.95"/>
 <polygon class="cls-8" points="23.4 16.75 23.5 16.65 23.6 16.55 25.4 15.05 24.3 13.75 23.4 16.65"/>
 <polygon class="cls-8" points="12 22.05 14.1 21.05 11.3 19.45"/>
 <polygon class="cls-8" points="10.8 13.95 7.8 10.45 7.8 13.35"/>
 <polygon class="cls-8" points="10.1 9.05 7.8 10.45 10.2 11.15"/>
 <polygon class="cls-7" points="10.2 11.15 7.8 10.45 10.8 13.95"/>
 <polygon class="cls-7" points="7.8 10.45 6.5 12.85 7.8 13.35"/>
 <polygon class="cls-9" points="10.8 13.95 11.3 10.35 10.1 9.05 10.2 11.15"/>
 <polygon class="cls-7" points="12 8.15 10.1 9.05 11.3 10.35"/>
 <polygon class="cls-9" points="6.5 12.85 5 15.55 7.8 13.35"/>
 <polygon class="cls-8" points="7.8 13.35 5 15.55 7.6 16.25"/>
 <polygon class="cls-10" points="8.8 23.35 9.9 21.45 8.2 20.15"/>
 <polygon class="cls-7" points="9.9 21.45 12 22.05 11.3 19.45"/>
 <polygon class="cls-9" points="7.1 22.15 8.8 23.35 8.2 20.15"/>
 <polygon class="cls-9" points="8.2 20.15 9.9 21.45 11.3 19.45"/>
 <polygon class="cls-9" points="5 15.55 6.4 19.25 7.6 16.25"/>
 <polygon class="cls-7" points="6.4 19.25 7.1 22.15 8.2 20.15"/>
 <polygon class="cls-8" points="7.6 16.25 6.4 19.25 8.2 20.15"/>
 <polygon class="cls-6" points="19.9 17.45 15.9 16.15 16 18.45"/>
 <polygon class="cls-7" points="16 18.45 15.9 16.15 11.9 16.95"/>
 <polygon class="cls-8" points="11.3 10.35 10.8 13.95 13.1 12.35"/>
 <polygon class="cls-7" points="13.1 12.35 15 11.55 11.3 10.35"/>
 <polygon class="cls-6" points="13.1 13.95 15 11.55 13.1 12.35"/>
 <polygon class="cls-6" points="15 11.55 14.4 8.85 11.3 10.35"/>
 <polygon class="cls-8" points="14.4 8.85 12.6 8.25 12 8.15 11.3 10.35"/>
</svg>
