<?xml version="1.0" encoding="UTF-8"?>
<svg id="麒麟安装" viewBox="0 0 48 48" xmlns="http://www.w3.org/2000/svg">
 <defs>
  <style>.cls-1,.cls-5,.cls-8{fill:none;}.cls-1,.cls-5{opacity:0.3;}.cls-2{fill:url(#未命名的渐变_122);}.cls-3{clip-path:url(#clip-path);}.cls-4{opacity:0.1;}.cls-5{stroke:#fff;stroke-miterlimit:10;stroke-width:1.36px;}.cls-6{opacity:0.15;isolation:isolate;}.cls-7{fill:#b2def0;}.cls-8{stroke:#231815;stroke-width:0.88px;}.cls-9{fill:#009fe8;}.cls-10{fill:#0091da;}.cls-11{fill:#0062b0;}.cls-12{fill:#004380;}</style>
  <linearGradient id="未命名的渐变_122" x1="24" x2="24" y1="44" y2="4" gradientUnits="userSpaceOnUse">
   <stop stop-color="#859ba6" offset="0"/>
   <stop stop-color="#b5c2c9" offset="1"/>
  </linearGradient>
  <clipPath id="clip-path">
   <rect id="SVGID" class="cls-1" x="4" y="4" width="40" height="40" rx="5"/>
  </clipPath>
 </defs>
 <g id="_48" data-name="48">
  <rect class="cls-2" x="4" y="4" width="40" height="40" rx="5"/>
  <g id="_48-2" data-name="48">
   <g class="cls-3">
    <g class="cls-4">
     <line class="cls-5" x1="4" x2="44" y1="41.63" y2="41.63"/>
     <line class="cls-5" x1="4" x2="44" y1="35.86" y2="35.86"/>
     <line class="cls-5" x1="4" x2="44" y1="30.1" y2="30.1"/>
     <line class="cls-5" x1="4" x2="44" y1="24.34" y2="24.34"/>
     <line class="cls-5" x1="4" x2="44" y1="18.58" y2="18.58"/>
     <line class="cls-5" x1="4" x2="44" y1="12.81" y2="12.81"/>
     <line class="cls-5" x1="4" x2="44" y1="7.05" y2="7.05"/>
    </g>
   </g>
  </g>
 </g>
 <path class="cls-6" d="M36.85,21.4l-2.3,3.4-2.2,1.1-1.6.8-5.4-2.2-3.9-2.8,2.6-3.6-.9-3.6,1.7-5-4,4-.6-.1,1.1-2.6-3.8,3.8-.1.2-3.2,2-1.6,3.3-2.2,3.7,2.1,5.1.7,4,.8,2.1-1.4,1.6-1.5,1.8h4l.5-3.6,1.6-2.5,2.6.4,3-1.1,2.2-1.1,2.2,1.4L24.65,35,22,37.5l4.1.1.1-1.7,3.1-2.5,1.1,1.4-3,4.7h4.1l-.1-2.4,3-2.9-1.6-3.1-.1-3.8,3.1-1.8,1.8.3,2.3-.8.7-4.9Zm-11.4,6.5h0l4.1,1.7Z"/>
 <g id="_48-2-2" data-name=" 48-2">
  <polygon class="cls-7" points="18.75 24.9 17.15 20.6 13.05 23.7 15.75 24.1"/>
  <polygon class="cls-8" points="24.45 26.9 24.55 26.9 24.55 26.8"/>
  <polygon class="cls-9" points="24.55 26.9 28.55 28.6 29.75 25.6 24.45 26.9"/>
  <polygon class="cls-7" points="18.05 28.2 24.45 26.9 18.75 24.9"/>
  <polygon class="cls-9" points="13.05 23.7 13.85 29.1 15.75 24.1"/>
  <polygon class="cls-10" points="15.75 24.1 13.85 29.1 18.75 24.9"/>
  <polygon class="cls-9" points="13.85 29.1 18.05 28.2 18.75 24.9"/>
  <polygon class="cls-11" points="17.15 20.6 20.55 20.7 20.55 18.4"/>
  <polygon class="cls-10" points="24.35 23.5 20.55 20.7 18.75 24.9"/>
  <polygon class="cls-9" points="18.75 24.9 20.55 20.7 17.15 20.6"/>
  <polygon class="cls-11" points="25.15 36.5 25.25 34.8 25.25 34.8 23.85 33.9"/>
  <polygon class="cls-12" points="21.05 36.4 25.15 36.5 23.85 33.9"/>
  <polygon class="cls-12" points="23.85 33.9 25.25 34.8 25.25 34.8 26.35 30.9"/>
  <polygon class="cls-11" points="30.35 36.1 33.35 33.3 29.55 33.7"/>
  <polygon class="cls-12" points="26.35 38.5 30.35 38.5 30.35 36.1 27.55 36.7 30.35 38.3 27.55 36.7 30.35 36.1 29.55 33.7"/>
  <polygon class="cls-11" points="25.25 34.8 28.35 32.3 26.35 30.9"/>
  <polygon class="cls-12" points="33.35 33.3 31.75 30.1 29.55 33.7"/>
  <polygon class="cls-12" points="10.15 37.4 14.15 37.4 11.65 35.6"/>
  <polygon class="cls-10" points="23.85 8.5 19.85 12.5 21.85 11.8"/>
  <polygon class="cls-10" points="20.35 9.9 16.45 13.9 18.95 12.4"/>
  <polygon class="cls-10" points="28.35 32.3 29.55 33.7 31.75 30.1 26.35 30.9"/>
  <polygon class="cls-9" points="21.85 11.8 19.85 12.5 22.15 13.5"/>
  <polygon class="cls-7" points="19.35 12.4 20.35 9.9 18.95 12.4"/>
  <polygon class="cls-7" points="22.15 13.5 23.85 8.5 21.85 11.8"/>
  <polygon class="cls-10" points="13.05 34 11.65 35.6 14.65 33.8 12.25 31.9"/>
  <polygon class="cls-9" points="13.15 19.8 13.05 23.7 17.15 20.6"/>
  <polygon class="cls-11" points="14.15 37.4 14.65 33.8 11.65 35.6"/>
  <polygon class="cls-11" points="31.75 30.1 31.55 26.4 28.55 28.6"/>
  <polygon class="cls-9" points="26.35 30.9 31.75 30.1 28.55 28.6"/>
  <polygon class="cls-10" points="28.55 28.6 31.55 26.4 29.75 25.6"/>
  <polygon class="cls-10" points="31.55 26.4 34.65 24.5 33.55 23.7"/>
  <polygon class="cls-11" points="24.15 29.4 26.35 30.9 28.55 28.6"/>
  <polygon class="cls-9" points="31.35 24.9 29.75 25.6 31.55 26.4 33.55 23.7"/>
  <polygon class="cls-12" points="21.95 30.6 24.15 29.4 18.05 28.2"/>
  <polygon class="cls-10" points="24.45 26.9 24.15 29.4 28.55 28.6"/>
  <polygon class="cls-11" points="24.45 26.9 18.05 28.2 24.15 29.4"/>
  <polygon class="cls-7" points="37.15 22.1 39.45 19.2 35.85 20.4"/>
  <polygon class="cls-10" points="36.45 24.9 38.75 24.1 37.15 22.1"/>
  <polygon class="cls-11" points="37.15 22.1 34.55 24.5 36.45 24.9"/>
  <polygon class="cls-9" points="33.55 23.7 34.65 24.5 35.85 20.4"/>
  <polygon class="cls-9" points="37.15 22.1 37.15 22.1 38.75 24.1 39.45 19.2"/>
  <polygon class="cls-10" points="35.85 20.4 34.55 24.5 37.15 22.1"/>
  <polygon class="cls-10" points="18.95 31.7 21.95 30.6 18.05 28.2"/>
  <polygon class="cls-10" points="17.15 20.6 13.25 15.8 13.15 19.8"/>
  <polygon class="cls-10" points="16.45 13.8 13.25 15.8 16.75 16.6"/>
  <polygon class="cls-9" points="16.75 16.6 13.25 15.8 17.15 20.6"/>
  <polygon class="cls-9" points="13.15 19.8 13.25 15.8 11.65 19.1 13.05 19.8"/>
  <polygon class="cls-11" points="17.15 20.6 18.15 15.5 18.15 15.5 16.45 13.8 16.75 16.6"/>
  <polygon class="cls-9" points="18.15 15.5 18.95 12.4 16.45 13.8"/>
  <polygon class="cls-11" points="11.65 19.1 9.45 22.8 13.05 19.8"/>
  <polygon class="cls-10" points="13.15 19.8 13.05 19.8 9.45 22.8 13.05 23.7"/>
  <polygon class="cls-12" points="14.65 33.8 16.35 31.3 13.85 29.1"/>
  <polygon class="cls-9" points="16.35 31.3 18.95 31.7 18.05 28.2"/>
  <polygon class="cls-11" points="12.25 31.9 14.65 33.8 13.85 29.1"/>
  <polygon class="cls-11" points="13.85 29.1 16.35 31.3 18.05 28.2"/>
  <polygon class="cls-11" points="9.45 22.8 11.55 27.9 13.05 23.7"/>
  <polygon class="cls-9" points="11.55 27.9 12.25 31.9 13.85 29.1"/>
  <polygon class="cls-10" points="13.05 23.7 11.55 27.9 13.85 29.1"/>
  <polygon class="cls-7" points="29.75 25.6 24.35 23.5 24.45 26.9"/>
  <polygon class="cls-9" points="24.45 26.9 24.45 26.9 24.35 23.5 18.75 24.9"/>
  <polygon class="cls-10" points="18.15 15.5 17.15 20.6 20.55 18.4"/>
  <polygon class="cls-9" points="18.15 15.5 20.55 18.4 23.05 17.1"/>
  <polygon class="cls-7" points="20.55 20.7 23.05 17.1 20.55 18.4"/>
  <polygon class="cls-7" points="18.15 15.5 23.05 17.1 22.15 13.5"/>
  <polygon class="cls-10" points="22.15 13.5 19.85 12.5 18.95 12.4 18.15 15.5"/>
 </g>
</svg>
