<?xml version="1.0" encoding="UTF-8"?>
<svg id="麒麟安装" viewBox="0 0 22 22" xmlns="http://www.w3.org/2000/svg">
 <defs>
  <style>.cls-1,.cls-5,.cls-6{fill:none;}.cls-1,.cls-5{opacity:0.3;}.cls-2{fill:url(#未命名的渐变_122);}.cls-3{clip-path:url(#clip-path);}.cls-4{opacity:0.1;}.cls-5{stroke:#fff;stroke-miterlimit:10;stroke-width:0.68px;}.cls-7{fill:#afd9e9;}.cls-8{fill:#1e95d4;}.cls-9{fill:#1888ca;}.cls-10{fill:#0a5da4;}.cls-11{fill:#00417a;}</style>
  <linearGradient id="未命名的渐变_122" x1="11" x2="11" y1="21" y2="1" gradientUnits="userSpaceOnUse">
   <stop stop-color="#859ba6" offset="0"/>
   <stop stop-color="#b5c2c9" offset="1"/>
  </linearGradient>
  <clipPath id="clip-path">
   <rect id="SVGID" class="cls-1" x="1" y="1" width="20" height="20" rx="3"/>
  </clipPath>
 </defs>
 <g id="_22" data-name="22">
  <rect class="cls-2" x="1" y="1" width="20" height="20" rx="3"/>
  <g id="_22-2" data-name="22">
   <g class="cls-3">
    <g class="cls-4">
     <line class="cls-5" x1="1" x2="21" y1="19.81" y2="19.81"/>
     <line class="cls-5" x1="1" x2="21" y1="16.93" y2="16.93"/>
     <line class="cls-5" x1="1" x2="21" y1="14.05" y2="14.05"/>
     <line class="cls-5" x1="1" x2="21" y1="11.17" y2="11.17"/>
     <line class="cls-5" x1="1" x2="21" y1="8.29" y2="8.29"/>
     <line class="cls-5" x1="1" x2="21" y1="5.41" y2="5.41"/>
     <line class="cls-5" x1="1" x2="21" y1="2.53" y2="2.53"/>
    </g>
   </g>
  </g>
 </g>
 <polygon class="cls-6" points="11 12.8 13.2 13.7 11.1 12.8"/>
 <polygon class="cls-7" points="8 11.7 7.2 9.5 4.9 11.2 6.3 11.3"/>
 <polygon class="cls-8" points="11.1 12.8 13.2 13.7 13.8 12.1 11 12.8"/>
 <polygon class="cls-7" points="7.6 13.5 11 12.8 8 11.7"/>
 <polygon class="cls-8" points="4.9 11.2 5.3 14 6.3 11.3"/>
 <polygon class="cls-9" points="6.3 11.3 5.3 14 8 11.7"/>
 <polygon class="cls-8" points="5.3 14 7.6 13.5 8 11.7"/>
 <polygon class="cls-10" points="7.2 9.5 8.9 9.5 8.9 8.4"/>
 <polygon class="cls-9" points="10.9 11.1 8.9 9.5 8 11.7"/>
 <polygon class="cls-8" points="8 11.7 8.9 9.5 7.2 9.5"/>
 <polygon class="cls-10" points="11.4 17.7 11.4 16.9 10.6 16.5"/>
 <polygon class="cls-11" points="9.2 17.7 11.4 17.7 10.6 16.5"/>
 <polygon class="cls-11" points="10.6 16.5 11.4 16.9 12 14.8"/>
 <polygon class="cls-10" points="14.1 17.6 15.7 16.1 13.7 16.4"/>
 <polygon class="cls-11" points="11.9 18.8 14.2 18.8 14.1 17.6 13.7 16.4"/>
 <polygon class="cls-10" points="11.4 16.9 13.1 15.7 12 14.8"/>
 <polygon class="cls-11" points="15.7 16.1 14.9 14.5 13.7 16.4"/>
 <polygon class="cls-11" points="3.3 18.3 5.5 18.3 4.1 17.3"/>
 <polygon class="cls-9" points="10.7 3.2 8.5 5.4 9.6 5"/>
 <polygon class="cls-9" points="8.8 3.9 6.7 6 8.1 5.3"/>
 <polygon class="cls-9" points="13.1 15.7 13.7 16.4 14.9 14.5 12 14.8"/>
 <polygon class="cls-8" points="9.6 5 8.5 5.4 9.8 5.8"/>
 <polygon class="cls-7" points="8.3 5.3 8.8 3.9 8.1 5.3"/>
 <polygon class="cls-7" points="9.8 5.8 10.7 3.2 9.6 5"/>
 <polygon class="cls-9" points="4.9 16.5 4.1 17.3 5.8 16.4 4.5 15.5"/>
 <polygon class="cls-8" points="5 9.1 4.9 11.2 7.2 9.5"/>
 <polygon class="cls-10" points="5.5 18.3 5.8 16.4 4.1 17.3"/>
 <polygon class="cls-10" points="14.9 14.5 14.7 12.6 13.2 13.7"/>
 <polygon class="cls-8" points="12 14.8 14.9 14.5 13.2 13.7"/>
 <polygon class="cls-9" points="13.2 13.7 14.7 12.6 13.8 12.1"/>
 <polygon class="cls-9" points="16.4 11.5 15.9 11.1 14.7 12.6 16.5 11.6 16.4 11.6"/>
 <polygon class="cls-10" points="10.8 14.1 12 14.8 13.2 13.7"/>
 <polygon class="cls-8" points="14.6 11.7 13.8 12.1 14.7 12.6 15.9 11.1"/>
 <polygon class="cls-11" points="9.6 14.7 10.8 14.1 7.6 13.5"/>
 <polygon class="cls-9" points="11 12.8 10.8 14.1 13.2 13.7"/>
 <polygon class="cls-10" points="7.6 13.5 10.8 14.1 11 12.8"/>
 <polygon class="cls-7" points="19 8.8 17 9.4 17.8 10.3"/>
 <polygon class="cls-9" points="17.3 11.7 18.6 11.3 17.8 10.3"/>
 <polygon class="cls-10" points="16.5 11.4 16.5 11.6 16.5 11.5 16.4 11.6 16.5 11.6 17.3 11.7 17.8 10.3"/>
 <polygon class="cls-8" points="17 9.4 15.9 11.1 16.4 11.5"/>
 <polygon class="cls-8" points="17.8 10.3 18.6 11.3 19 8.8"/>
 <polygon class="cls-9" points="16.4 11.6 16.5 11.5 16.5 11.4 17.8 10.3 17 9.4 16.4 11.5"/>
 <polygon class="cls-9" points="8.1 15.4 9.6 14.7 7.6 13.5"/>
 <polygon class="cls-9" points="7.2 9.5 5 7 5 9.1"/>
 <polygon class="cls-9" points="6.7 6 5 7 6.8 7.5"/>
 <polygon class="cls-8" points="6.8 7.5 5 7 7.2 9.5"/>
 <polygon class="cls-8" points="5 7 4.1 8.7 5 9.1"/>
 <polygon class="cls-10" points="7.2 9.5 7.6 6.9 6.7 6 6.8 7.5"/>
 <polygon class="cls-8" points="8.1 5.3 6.7 6 7.6 6.9"/>
 <polygon class="cls-10" points="4.1 8.7 3 10.7 5 9.1"/>
 <polygon class="cls-9" points="5 9.1 3 10.7 4.9 11.2"/>
 <polygon class="cls-11" points="5.8 16.4 6.6 15 5.3 14"/>
 <polygon class="cls-8" points="6.6 15 8.1 15.4 7.6 13.5"/>
 <polygon class="cls-10" points="4.5 15.5 5.8 16.4 5.3 14"/>
 <polygon class="cls-10" points="5.3 14 6.6 15 7.6 13.5"/>
 <polygon class="cls-10" points="3 10.7 4 13.4 4.9 11.2"/>
 <polygon class="cls-8" points="4 13.4 4.5 15.5 5.3 14"/>
 <polygon class="cls-9" points="4.9 11.2 4 13.4 5.3 14"/>
 <polygon class="cls-7" points="13.8 12.1 10.9 11.1 11 12.8"/>
 <polygon class="cls-8" points="11 12.8 10.9 11.1 8 11.7"/>
 <polygon class="cls-9" points="7.6 6.9 7.2 9.5 8.9 8.4"/>
 <polygon class="cls-8" points="8.9 8.4 10.3 7.8 7.6 6.9"/>
 <polygon class="cls-7" points="8.9 9.5 10.3 7.8 8.9 8.4"/>
 <polygon class="cls-7" points="10.3 7.8 9.8 5.8 7.6 6.9"/>
 <polygon class="cls-9" points="9.8 5.8 8.5 5.4 8.1 5.3 7.6 6.9"/>
</svg>
