<?xml version="1.0" encoding="UTF-8"?>
<svg id="麒麟安装" viewBox="0 0 64 64" xmlns="http://www.w3.org/2000/svg">
 <defs>
  <style>.cls-1,.cls-5,.cls-8{fill:none;}.cls-1,.cls-5{opacity:0.3;}.cls-2{fill:url(#未命名的渐变_122);}.cls-3{clip-path:url(#clip-path);}.cls-4{opacity:0.1;}.cls-5{stroke:#fff;stroke-miterlimit:10;stroke-width:1.9px;}.cls-6{opacity:0.2;isolation:isolate;}.cls-7{fill:#b2def0;}.cls-8{stroke:#231815;stroke-width:0.88px;}.cls-9{fill:#009fe8;}.cls-10{fill:#0091da;}.cls-11{fill:#0062b0;}.cls-12{fill:#004380;}</style>
  <linearGradient id="未命名的渐变_122" x1="32" x2="32" y1="60" y2="4" gradientUnits="userSpaceOnUse">
   <stop stop-color="#859ba6" offset="0"/>
   <stop stop-color="#b5c2c9" offset="1"/>
  </linearGradient>
  <clipPath id="clip-path">
   <rect id="SVGID" class="cls-1" x="4" y="4" width="56" height="56" rx="6"/>
  </clipPath>
 </defs>
 <g id="_64" data-name="64">
  <rect class="cls-2" x="4" y="4" width="56" height="56" rx="6"/>
  <g id="_64-2" data-name="64">
   <g class="cls-3">
    <g class="cls-4">
     <line class="cls-5" x1="4" x2="60" y1="56.68" y2="56.68"/>
     <line class="cls-5" x1="4" x2="60" y1="48.61" y2="48.61"/>
     <line class="cls-5" x1="4" x2="60" y1="40.54" y2="40.54"/>
     <line class="cls-5" x1="4" x2="60" y1="32.47" y2="32.47"/>
     <line class="cls-5" x1="4" x2="60" y1="24.41" y2="24.41"/>
     <line class="cls-5" x1="4" x2="60" y1="16.34" y2="16.34"/>
     <line class="cls-5" x1="4" x2="60" y1="8.27" y2="8.27"/>
    </g>
   </g>
  </g>
 </g>
 <polygon class="cls-6" points="49.1 27.8 46.1 32.2 43.2 33.8 41 35 33.9 32.1 28.8 28.3 32.2 23.5 31 18.6 33.2 12 27.9 17.3 27.2 17.2 28.6 13.9 28.6 13.8 23.7 18.7 23.3 19 19 21.7 17 26.1 14 31 16.8 37.9 17.7 43.2 18.8 46 16.9 48.2 15 50.6 20.3 50.6 21 45.7 23.1 42.4 26.7 43 30.7 41.4 33.7 39.9 36.6 41.9 36.6 41.9 33.1 45.9 29.6 49.2 35 49.3 35 47.1 35 47 39.2 43.6 39.3 43.7 40.8 45.7 36.4 52 42 52 41.7 48.8 45.8 45.1 43.7 40.9 43.4 35.8 47.6 33.4 49.9 33.8 53 32.8 54 26.3"/>
 <g id="_64-2-2" data-name=" 64-2">
  <polygon class="cls-7" points="25.4 32.9 23.3 27.1 17.8 31.3 21.4 31.8"/>
  <polygon class="cls-8" points="33 35.4 33.1 35.5 33.1 35.4"/>
  <polygon class="cls-9" points="33.1 35.5 38.5 37.8 40 34 33 35.4"/>
  <polygon class="cls-7" points="24.5 37.3 33 35.4 25.4 32.9"/>
  <polygon class="cls-9" points="17.8 31.3 18.9 38.5 21.4 31.8"/>
  <polygon class="cls-10" points="21.4 31.8 18.9 38.5 25.4 32.9"/>
  <polygon class="cls-9" points="18.9 38.5 24.5 37.3 25.4 32.9"/>
  <polygon class="cls-8" points="24.5 20.3 24.6 20.4 24.6 20.4"/>
  <polygon class="cls-11" points="23.3 27.1 27.8 27.3 27.9 24.2"/>
  <polygon class="cls-10" points="32.9 31.1 27.8 27.3 25.4 32.9"/>
  <polygon class="cls-8" points="24.6 20.3 24.5 20.3 24.6 20.4"/>
  <polygon class="cls-9" points="25.4 32.9 27.8 27.3 23.3 27.1"/>
  <polygon class="cls-11" points="34 48.3 34 46.1 34 46.1 32.1 44.9"/>
  <polygon class="cls-12" points="28.6 48.2 34 48.3 32.1 44.9"/>
  <polygon class="cls-12" points="32.1 44.9 34 46.1 34 46 35.6 40.9"/>
  <polygon class="cls-11" points="40.7 47.8 44.8 44.1 39.8 44.7"/>
  <polygon class="cls-12" points="35.4 51 41 51 40.7 47.8 37.2 48.7 40.9 50.7 37.2 48.7 40.7 47.8 39.8 44.7"/>
  <polygon class="cls-11" points="34 46 38.2 42.7 35.6 40.9"/>
  <polygon class="cls-12" points="44.8 44.1 42.7 39.9 39.8 44.7"/>
  <polygon class="cls-12" points="14 49.6 19.3 49.6 15.9 47.2"/>
  <polygon class="cls-10" points="32.2 11 26.9 16.3 29.6 15.3"/>
  <polygon class="cls-10" points="27.6 12.8 22.3 18.2 25.7 16.1"/>
  <polygon class="cls-10" points="38.3 42.7 39.8 44.7 42.7 39.9 35.6 40.9"/>
  <polygon class="cls-9" points="29.6 15.3 26.9 16.3 30 17.6"/>
  <polygon class="cls-7" points="26.2 16.2 27.6 12.9 25.7 16.1"/>
  <polygon class="cls-7" points="30 17.6 32.2 11 29.6 15.3"/>
  <polygon class="cls-10" points="17.8 45 15.9 47.2 20 44.7 16.7 42.2"/>
  <polygon class="cls-9" points="17.9 26.1 17.8 31.3 23.3 27.1"/>
  <polygon class="cls-11" points="19.3 49.6 20 44.7 15.9 47.2"/>
  <polygon class="cls-11" points="42.7 39.9 42.4 34.8 38.5 37.8"/>
  <polygon class="cls-9" points="35.6 40.9 42.7 39.9 38.5 37.8"/>
  <polygon class="cls-10" points="38.5 37.8 42.4 34.8 40 34"/>
  <polygon class="cls-10" points="42.4 34.8 46.7 32.4 45.1 31.2"/>
  <polygon class="cls-11" points="32.7 38.9 35.6 40.9 38.5 37.8"/>
  <polygon class="cls-9" points="42.2 32.8 40 34 42.4 34.8 45.1 31.2"/>
  <polygon class="cls-12" points="29.7 40.4 32.7 38.9 24.5 37.3"/>
  <polygon class="cls-10" points="33 35.4 32.7 38.9 38.5 37.8"/>
  <polygon class="cls-11" points="33 35.4 24.5 37.3 32.7 38.9"/>
  <polygon class="cls-7" points="50 29.1 53 25.3 48.1 26.8"/>
  <polygon class="cls-10" points="48.9 32.8 52 31.8 50 29.1"/>
  <polygon class="cls-11" points="50 29.1 46.6 32.4 48.9 32.8"/>
  <polygon class="cls-9" points="45.1 31.2 46.7 32.4 48.1 26.8"/>
  <polygon class="cls-9" points="50 29.1 50 29.1 52 31.8 53 25.3"/>
  <polygon class="cls-10" points="48.1 26.8 46.6 32.4 50 29.1"/>
  <polygon class="cls-10" points="25.7 42 29.7 40.4 24.5 37.3"/>
  <polygon class="cls-10" points="23.3 27.1 18 20.7 17.9 26.1"/>
  <polygon class="cls-10" points="22.3 18 18 20.7 22.8 21.9"/>
  <polygon class="cls-9" points="22.8 21.9 18 20.7 23.3 27.1"/>
  <polygon class="cls-9" points="17.9 26.1 18 20.7 16 25.1"/>
  <polygon class="cls-11" points="23.3 27.1 24.6 20.4 24.5 20.3 22.3 18 22.8 21.9"/>
  <polygon class="cls-9" points="24.6 20.4 25.7 16.1 22.3 18 24.5 20.3"/>
  <polygon class="cls-11" points="16 25.1 13 30 17.9 26.1"/>
  <polygon class="cls-10" points="17.9 26.1 17.9 26.1 13 30 17.8 31.3"/>
  <polygon class="cls-12" points="20 44.7 22.1 41.4 18.9 38.5"/>
  <polygon class="cls-9" points="22.1 41.4 25.7 42 24.5 37.3"/>
  <polygon class="cls-11" points="16.7 42.2 20 44.7 18.9 38.5"/>
  <polygon class="cls-11" points="18.9 38.5 22.1 41.4 24.5 37.3"/>
  <polygon class="cls-11" points="13 30 15.8 36.9 17.8 31.3"/>
  <polygon class="cls-9" points="15.8 36.9 16.7 42.2 18.9 38.5"/>
  <polygon class="cls-10" points="17.8 31.3 15.8 36.9 18.9 38.5"/>
  <polygon class="cls-7" points="40 34 32.9 31.1 33 35.4"/>
  <polygon class="cls-9" points="33 35.4 33 35.4 32.9 31.1 25.4 32.9"/>
  <polygon class="cls-10" points="24.6 20.4 23.3 27.1 27.9 24.2"/>
  <polygon class="cls-9" points="24.6 20.4 27.9 24.2 31.2 22.5"/>
  <polygon class="cls-7" points="27.8 27.3 31.2 22.5 27.9 24.2"/>
  <polygon class="cls-7" points="24.6 20.4 31.2 22.5 30 17.6"/>
  <polygon class="cls-10" points="30 17.6 26.9 16.3 25.7 16.1 24.6 20.4"/>
 </g>
</svg>
