<?xml version="1.0" encoding="UTF-8"?>
<svg id="麒麟安装" viewBox="0 0 16 16" xmlns="http://www.w3.org/2000/svg">
 <defs>
  <style>.cls-1,.cls-5,.cls-7{fill:none;}.cls-1,.cls-5{opacity:0.3;}.cls-2{fill:url(#未命名的渐变_122);}.cls-3{clip-path:url(#clip-path);}.cls-4{opacity:0.1;}.cls-5{stroke:#fff;stroke-miterlimit:10;stroke-width:0.54px;}.cls-6{fill:#afd9e9;}.cls-7{stroke:#231815;stroke-width:0.88px;}.cls-8{fill:#1e95d4;}.cls-9{fill:#1888ca;}.cls-10{fill:#0a5da4;}.cls-11{fill:#00417a;}</style>
  <linearGradient id="未命名的渐变_122" x1="8" x2="8" y1="16" gradientUnits="userSpaceOnUse">
   <stop stop-color="#859ba6" offset="0"/>
   <stop stop-color="#b5c2c9" offset="1"/>
  </linearGradient>
  <clipPath id="clip-path">
   <rect id="SVGID" class="cls-1" width="16" height="16" rx="3"/>
  </clipPath>
 </defs>
 <g id="_16" data-name="16">
  <rect class="cls-2" width="16" height="16" rx="3"/>
  <g id="_16-2" data-name="16">
   <g class="cls-3">
    <g class="cls-4">
     <line class="cls-5" x2="16" y1="15.05" y2="15.05"/>
     <line class="cls-5" x2="16" y1="12.75" y2="12.75"/>
     <line class="cls-5" x2="16" y1="10.44" y2="10.44"/>
     <line class="cls-5" x2="16" y1="8.14" y2="8.14"/>
     <line class="cls-5" x2="16" y1="5.83" y2="5.83"/>
     <line class="cls-5" x2="16" y1="3.53" y2="3.53"/>
     <line class="cls-5" x2="16" y1="1.22" y2="1.22"/>
    </g>
   </g>
  </g>
 </g>
 <polygon class="cls-6" points="5.8 8.55 5.1 6.85 3.4 8.15 4.5 8.25"/>
 <polygon class="cls-7" points="8 9.35 8.1 9.35 8.1 9.35"/>
 <polygon class="cls-8" points="8.1 9.35 9.6 10.05 10.1 8.85 8 9.35"/>
 <polygon class="cls-6" points="5.4 9.85 8 9.35 5.8 8.55"/>
 <polygon class="cls-8" points="3.4 8.15 3.7 10.25 4.5 8.25"/>
 <polygon class="cls-9" points="4.5 8.25 3.7 10.25 5.8 8.55"/>
 <polygon class="cls-8" points="3.7 10.25 5.4 9.85 5.8 8.55"/>
 <polygon class="cls-7" points="5.4 4.95 5.4 4.95 5.5 4.95"/>
 <polygon class="cls-10" points="5.1 6.85 6.4 6.85 6.4 6.05"/>
 <polygon class="cls-9" points="7.9 8.05 6.4 6.85 5.8 8.55"/>
 <polygon class="cls-7" points="5.5 4.85 5.4 4.95 5.5 4.95"/>
 <polygon class="cls-8" points="5.8 8.55 6.4 6.85 5.1 6.85"/>
 <polygon class="cls-10" points="8.3 13.05 8.3 12.45 8.3 12.45 7.7 12.15"/>
 <polygon class="cls-11" points="6.6 13.05 8.3 13.05 7.7 12.15"/>
 <polygon class="cls-11" points="7.7 12.15 8.3 12.45 8.3 12.45 8.8 10.85"/>
 <polygon class="cls-10" points="10.3 12.95 11.5 11.85 10 12.05"/>
 <polygon class="cls-11" points="8.7 13.85 10.4 13.85 10.3 12.95 9.3 13.25 10.3 13.85 9.3 13.25 10.3 12.95 10 12.05"/>
 <polygon class="cls-10" points="8.3 12.45 9.6 11.55 8.8 10.85"/>
 <polygon class="cls-11" points="11.5 11.85 10.9 10.65 10 12.05"/>
 <polygon class="cls-11" points="2.2 13.45 3.9 13.45 2.8 12.75"/>
 <polygon class="cls-9" points="7.8 2.15 6.1 3.85 6.9 3.45"/>
 <polygon class="cls-9" points="6.4 2.65 4.8 4.25 5.8 3.75"/>
 <polygon class="cls-9" points="9.6 11.55 10 12.05 10.9 10.65 8.8 10.85"/>
 <polygon class="cls-8" points="6.9 3.45 6.1 3.85 7.1 4.05"/>
 <polygon class="cls-6" points="6 3.75 6.4 2.65 5.8 3.75"/>
 <polygon class="cls-6" points="7.1 4.05 7.8 2.15 6.9 3.45"/>
 <polygon class="cls-9" points="3.4 12.15 2.8 12.75 4.1 12.05 3.1 11.35"/>
 <polygon class="cls-8" points="3.5 6.55 3.4 8.15 5.1 6.85"/>
 <polygon class="cls-10" points="3.9 13.45 4.1 12.05 2.8 12.75"/>
 <polygon class="cls-10" points="10.9 10.65 10.8 9.15 9.6 10.05"/>
 <polygon class="cls-8" points="8.8 10.85 10.9 10.65 9.6 10.05"/>
 <polygon class="cls-9" points="9.6 10.05 10.8 9.15 10.1 8.85"/>
 <polygon class="cls-9" points="10.8 9.15 12.1 8.45 11.7 8.05"/>
 <polygon class="cls-10" points="7.9 10.35 8.8 10.85 9.6 10.05"/>
 <polygon class="cls-8" points="10.7 8.55 10.1 8.85 10.8 9.15 11.7 8.05"/>
 <polygon class="cls-11" points="6.9 10.75 7.9 10.35 5.4 9.85"/>
 <polygon class="cls-9" points="8 9.35 7.9 10.35 9.6 10.05"/>
 <polygon class="cls-10" points="8 9.35 5.4 9.85 7.9 10.35"/>
 <polygon class="cls-6" points="13.1 7.45 14 6.35 12.5 6.75"/>
 <polygon class="cls-9" points="12.7 8.55 13.7 8.25 13.1 7.45"/>
 <polygon class="cls-10" points="13.1 7.45 12 8.45 12.7 8.55"/>
 <polygon class="cls-8" points="11.7 8.05 12.1 8.45 12.5 6.75"/>
 <polygon class="cls-8" points="13.1 7.45 13.1 7.45 13.7 8.25 14 6.35"/>
 <polygon class="cls-9" points="12.5 6.75 12 8.45 13.1 7.45"/>
 <polygon class="cls-9" points="5.8 11.25 6.9 10.75 5.4 9.85"/>
 <polygon class="cls-9" points="5.1 6.85 3.5 4.95 3.5 6.55"/>
 <polygon class="cls-9" points="4.8 4.25 3.5 4.95 4.8 5.35"/>
 <polygon class="cls-8" points="4.8 5.35 3.5 4.95 5.1 6.85"/>
 <polygon class="cls-8" points="3.5 6.55 3.5 4.95 2.8 6.25"/>
 <polygon class="cls-10" points="5.1 6.85 5.4 4.95 5.4 4.95 4.8 4.25 4.8 5.35"/>
 <polygon class="cls-8" points="5.4 4.95 5.8 3.75 4.8 4.25"/>
 <polygon class="cls-10" points="2.8 6.25 2 7.75 3.5 6.55"/>
 <polygon class="cls-9" points="3.5 6.55 3.5 6.55 2 7.75 3.4 8.15"/>
 <polygon class="cls-11" points="4.1 12.05 4.7 11.05 3.7 10.25"/>
 <polygon class="cls-8" points="4.7 11.05 5.8 11.25 5.4 9.85"/>
 <polygon class="cls-10" points="3.1 11.35 4.1 12.05 3.7 10.25"/>
 <polygon class="cls-10" points="3.7 10.25 4.7 11.05 5.4 9.85"/>
 <polygon class="cls-10" points="2 7.75 2.8 9.75 3.4 8.15"/>
 <polygon class="cls-8" points="2.8 9.75 3.1 11.35 3.7 10.25"/>
 <polygon class="cls-9" points="3.4 8.15 2.8 9.75 3.7 10.25"/>
 <polygon class="cls-6" points="10.1 8.85 7.9 8.05 8 9.35"/>
 <polygon class="cls-8" points="8 9.35 8 9.35 7.9 8.05 5.8 8.55"/>
 <polygon class="cls-9" points="5.4 4.95 5.1 6.85 6.4 6.05"/>
 <polygon class="cls-8" points="5.4 4.95 6.4 6.05 7.5 5.55 5.5 4.95"/>
 <polygon class="cls-6" points="6.4 6.85 7.5 5.55 6.4 6.05"/>
 <polygon class="cls-6" points="5.4 4.95 7.5 5.55 7.1 4.05"/>
 <polygon class="cls-9" points="7.1 4.05 6.1 3.85 5.8 3.75 5.4 4.95"/>
</svg>
