<?xml version="1.0" encoding="UTF-8"?>
<svg id="麒麟安装" viewBox="0 0 24 24" xmlns="http://www.w3.org/2000/svg">
 <defs>
  <style>.cls-1,.cls-5,.cls-6{fill:none;}.cls-1,.cls-5{opacity:0.3;}.cls-2{fill:url(#未命名的渐变_122);}.cls-3{clip-path:url(#clip-path);}.cls-4{opacity:0.1;}.cls-5{stroke:#fff;stroke-miterlimit:10;stroke-width:0.68px;}.cls-7{fill:#afd9e9;}.cls-8{fill:#1e95d4;}.cls-9{fill:#1888ca;}.cls-10{fill:#0a5da4;}.cls-11{fill:#00417a;}</style>
  <linearGradient id="未命名的渐变_122" x1="12" x2="12" y1="22" y2="2" gradientUnits="userSpaceOnUse">
   <stop stop-color="#859ba6" offset="0"/>
   <stop stop-color="#b5c2c9" offset="1"/>
  </linearGradient>
  <clipPath id="clip-path">
   <rect id="SVGID" class="cls-1" x="2" y="2" width="20" height="20" rx="3"/>
  </clipPath>
 </defs>
 <g id="_24" data-name="24">
  <rect class="cls-2" x="2" y="2" width="20" height="20" rx="3"/>
  <g id="_24-2" data-name="24">
   <g class="cls-3">
    <g class="cls-4">
     <line class="cls-5" x1="2" x2="22" y1="20.81" y2="20.81"/>
     <line class="cls-5" x1="2" x2="22" y1="17.93" y2="17.93"/>
     <line class="cls-5" x1="2" x2="22" y1="15.05" y2="15.05"/>
     <line class="cls-5" x1="2" x2="22" y1="12.17" y2="12.17"/>
     <line class="cls-5" x1="2" x2="22" y1="9.29" y2="9.29"/>
     <line class="cls-5" x1="2" x2="22" y1="6.41" y2="6.41"/>
     <line class="cls-5" x1="2" x2="22" y1="3.53" y2="3.53"/>
    </g>
   </g>
  </g>
 </g>
 <polygon class="cls-6" points="12 13.8 14.2 14.7 12.1 13.8"/>
 <polygon class="cls-7" points="9 12.7 8.2 10.5 5.9 12.2 7.3 12.3"/>
 <polygon class="cls-8" points="12.1 13.8 14.2 14.7 14.8 13.1 12 13.8"/>
 <polygon class="cls-7" points="8.6 14.5 12 13.8 9 12.7"/>
 <polygon class="cls-8" points="5.9 12.2 6.3 15 7.3 12.3"/>
 <polygon class="cls-9" points="7.3 12.3 6.3 15 9 12.7"/>
 <polygon class="cls-8" points="6.3 15 8.6 14.5 9 12.7"/>
 <polygon class="cls-10" points="8.2 10.5 9.9 10.5 9.9 9.4"/>
 <polygon class="cls-9" points="11.9 12.1 9.9 10.5 9 12.7"/>
 <polygon class="cls-8" points="9 12.7 9.9 10.5 8.2 10.5"/>
 <polygon class="cls-10" points="12.4 18.7 12.4 17.9 11.6 17.5"/>
 <polygon class="cls-11" points="10.2 18.7 12.4 18.7 11.6 17.5"/>
 <polygon class="cls-11" points="11.6 17.5 12.4 17.9 13 15.8"/>
 <polygon class="cls-10" points="15.1 18.6 16.7 17.1 14.7 17.4"/>
 <polygon class="cls-11" points="12.9 19.8 15.2 19.8 15.1 18.6 14.7 17.4"/>
 <polygon class="cls-10" points="12.4 17.9 14.1 16.7 13 15.8"/>
 <polygon class="cls-11" points="16.7 17.1 15.9 15.5 14.7 17.4"/>
 <polygon class="cls-11" points="4.3 19.3 6.5 19.3 5.1 18.3"/>
 <polygon class="cls-9" points="11.7 4.2 9.5 6.4 10.6 6"/>
 <polygon class="cls-9" points="9.8 4.9 7.7 7 9.1 6.3"/>
 <polygon class="cls-9" points="14.1 16.7 14.7 17.4 15.9 15.5 13 15.8"/>
 <polygon class="cls-8" points="10.6 6 9.5 6.4 10.8 6.8"/>
 <polygon class="cls-7" points="9.3 6.3 9.8 4.9 9.1 6.3"/>
 <polygon class="cls-7" points="10.8 6.8 11.7 4.2 10.6 6"/>
 <polygon class="cls-9" points="5.9 17.5 5.1 18.3 6.8 17.4 5.5 16.5"/>
 <polygon class="cls-8" points="6 10.1 5.9 12.2 8.2 10.5"/>
 <polygon class="cls-10" points="6.5 19.3 6.8 17.4 5.1 18.3"/>
 <polygon class="cls-10" points="15.9 15.5 15.7 13.6 14.2 14.7"/>
 <polygon class="cls-8" points="13 15.8 15.9 15.5 14.2 14.7"/>
 <polygon class="cls-9" points="14.2 14.7 15.7 13.6 14.8 13.1"/>
 <polygon class="cls-9" points="17.4 12.5 16.9 12.1 15.7 13.6 17.5 12.6 17.4 12.6"/>
 <polygon class="cls-10" points="11.8 15.1 13 15.8 14.2 14.7"/>
 <polygon class="cls-8" points="15.6 12.7 14.8 13.1 15.7 13.6 16.9 12.1"/>
 <polygon class="cls-11" points="10.6 15.7 11.8 15.1 8.6 14.5"/>
 <polygon class="cls-9" points="12 13.8 11.8 15.1 14.2 14.7"/>
 <polygon class="cls-10" points="8.6 14.5 11.8 15.1 12 13.8"/>
 <polygon class="cls-7" points="20 9.8 18 10.4 18.8 11.3"/>
 <polygon class="cls-9" points="18.3 12.7 19.6 12.3 18.8 11.3"/>
 <polygon class="cls-10" points="17.5 12.4 17.5 12.6 17.5 12.5 17.4 12.6 17.5 12.6 18.3 12.7 18.8 11.3"/>
 <polygon class="cls-8" points="18 10.4 16.9 12.1 17.4 12.5"/>
 <polygon class="cls-8" points="18.8 11.3 19.6 12.3 20 9.8"/>
 <polygon class="cls-9" points="17.4 12.6 17.5 12.5 17.5 12.4 18.8 11.3 18 10.4 17.4 12.5"/>
 <polygon class="cls-9" points="9.1 16.4 10.6 15.7 8.6 14.5"/>
 <polygon class="cls-9" points="8.2 10.5 6 8 6 10.1"/>
 <polygon class="cls-9" points="7.7 7 6 8 7.8 8.5"/>
 <polygon class="cls-8" points="7.8 8.5 6 8 8.2 10.5"/>
 <polygon class="cls-8" points="6 8 5.1 9.7 6 10.1"/>
 <polygon class="cls-10" points="8.2 10.5 8.6 7.9 7.7 7 7.8 8.5"/>
 <polygon class="cls-8" points="9.1 6.3 7.7 7 8.6 7.9"/>
 <polygon class="cls-10" points="5.1 9.7 4 11.7 6 10.1"/>
 <polygon class="cls-9" points="6 10.1 4 11.7 5.9 12.2"/>
 <polygon class="cls-11" points="6.8 17.4 7.6 16 6.3 15"/>
 <polygon class="cls-8" points="7.6 16 9.1 16.4 8.6 14.5"/>
 <polygon class="cls-10" points="5.5 16.5 6.8 17.4 6.3 15"/>
 <polygon class="cls-10" points="6.3 15 7.6 16 8.6 14.5"/>
 <polygon class="cls-10" points="4 11.7 5 14.4 5.9 12.2"/>
 <polygon class="cls-8" points="5 14.4 5.5 16.5 6.3 15"/>
 <polygon class="cls-9" points="5.9 12.2 5 14.4 6.3 15"/>
 <polygon class="cls-7" points="14.8 13.1 11.9 12.1 12 13.8"/>
 <polygon class="cls-8" points="12 13.8 11.9 12.1 9 12.7"/>
 <polygon class="cls-9" points="8.6 7.9 8.2 10.5 9.9 9.4"/>
 <polygon class="cls-8" points="9.9 9.4 11.3 8.8 8.6 7.9"/>
 <polygon class="cls-7" points="9.9 10.5 11.3 8.8 9.9 9.4"/>
 <polygon class="cls-7" points="11.3 8.8 10.8 6.8 8.6 7.9"/>
 <polygon class="cls-9" points="10.8 6.8 9.5 6.4 9.1 6.3 8.6 7.9"/>
</svg>
